<?xml version="1.0" encoding="UTF-8"?>
<svg id="Capa_7" data-name="Capa 7" xmlns="http://www.w3.org/2000/svg" viewBox="0 0 595.28 841.89">
  <defs>
    <style>
      .cls-1 {
        fill: #fff;
      }

      .cls-2 {
        fill: #2502fe;
      }
    </style>
  </defs>
  <path class="cls-2" d="M97.82,419.32c13.96,5.43,20.94,15.5,20.94,30.22,0,11.1-4.02,19.66-12.05,25.69-8.03,6.03-18.51,9.05-31.41,9.05H26.11c-1.32,0-1.98-.6-1.98-1.81v-123.05c0-1.2.66-1.81,1.98-1.81h47.61c13.7,0,24.33,2.87,31.91,8.6,7.57,5.73,11.36,14.09,11.36,25.06,0,13.03-6.39,22.02-19.16,26.96-.66.36-.66.72,0,1.09h-.01ZM43.1,373.35v38.18c0,.48.26.72.79.72h29.83c7.64,0,13.66-1.75,18.08-5.25,4.41-3.5,6.62-8.26,6.62-14.3s-2.21-11.04-6.62-14.66-10.44-5.43-18.08-5.43h-29.83c-.53,0-.79.24-.79.72v.02ZM93.18,463.38c4.41-3.8,6.62-8.96,6.62-15.47s-2.24-11.67-6.72-15.47-10.6-5.7-18.37-5.7h-30.82c-.53,0-.79.24-.79.72v40.9c0,.48.26.72.79.72h31.41c7.51,0,13.46-1.9,17.88-5.7h0Z"/>
  <path class="cls-2" d="M355.1,359.42v13.4c0,1.21-.66,1.81-1.97,1.81h-37.93c-.53,0-.79.24-.79.72v107.11c0,1.21-.66,1.81-1.98,1.81h-15.01c-1.32,0-1.98-.6-1.98-1.81v-107.11c0-.48-.27-.72-.79-.72h-36.15c-1.32,0-1.98-.6-1.98-1.81v-13.4c0-1.2.66-1.81,1.98-1.81h94.63c1.31,0,1.97.6,1.97,1.81h0Z"/>
  <g>
    <polygon points="368.23 357.15 368.35 484.59 399.79 484.59 399.77 357.15 368.23 357.15"/>
    <polygon points="493.79 357.15 462.07 357.15 412.52 484.59 446.14 484.59 477.96 400.25 510.02 484.59 543.95 484.59 493.79 357.15"/>
  </g>
  <path class="cls-2" d="M194.72,349.73c-39.27,0-71.22,31.95-71.22,71.22s31.95,71.22,71.22,71.22,71.22-31.95,71.22-71.22-31.95-71.22-71.22-71.22h0Z"/>
  <g>
    <path class="cls-1" d="M179.79,398.93c-13.12.07-23.69,10.75-23.62,23.87.07,13.1,10.75,23.67,23.87,23.6h1.23l.09,16.1,16-16.19,12.28-.07c13.12-.07,23.69-10.75,23.62-23.85-.07-13.12-10.75-23.69-23.87-23.62l-29.59.16h0Z"/>
    <g>
      <path class="cls-2" d="M203.23,430.2c-3.44.02-6.23-3.86-6.25-8.67-.03-4.81,2.72-8.73,6.16-8.75,3.42-.02,6.23,3.88,6.25,8.68.03,4.81-2.74,8.72-6.16,8.73h0Z"/>
      <path class="cls-2" d="M184.8,430.3c-3.42.02-6.23-3.86-6.25-8.67-.03-4.81,2.74-8.73,6.16-8.75,3.44-.02,6.24,3.88,6.27,8.68.03,4.81-2.74,8.72-6.18,8.73h0Z"/>
    </g>
    <path class="cls-1" d="M212.16,387.03c-.02-4.24-3.48-7.67-7.73-7.64-4.24.02-7.67,3.48-7.64,7.73.02,3.15,1.92,5.84,4.64,7.01l.06,11.23,6.17-.03-.06-11.23c2.7-1.2,4.58-3.91,4.56-7.06h0Z"/>
  </g>
</svg>