<svg width="143" height="143" viewBox="0 0 143 143" fill="none" xmlns="http://www.w3.org/2000/svg">
<path d="M71.22 0C31.95 0 0 31.95 0 71.22C0 110.49 31.95 142.44 71.22 142.44C110.49 142.44 142.44 110.49 142.44 71.22C142.44 31.95 110.49 0 71.22 0Z" fill="#2502FE"/>
<path d="M56.2903 49.1994C43.1703 49.2694 32.6003 59.9494 32.6703 73.0694C32.7403 86.1694 43.4203 96.7394 56.5403 96.6694H57.7703L57.8603 112.769L73.8603 96.5794L86.1403 96.5094C99.2603 96.4394 109.83 85.7594 109.76 72.6594C109.69 59.5394 99.0103 48.9694 85.8903 49.0394L56.3003 49.1994H56.2903Z" fill="white"/>
<path d="M79.7307 80.4689C76.2907 80.4889 73.5007 76.6089 73.4807 71.7989C73.4507 66.9889 76.2007 63.0689 79.6407 63.0489C83.0607 63.0289 85.8707 66.9289 85.8907 71.7289C85.9207 76.5389 83.1507 80.4489 79.7307 80.4589V80.4689Z" fill="#2502FE"/>
<path d="M61.301 80.5685C57.881 80.5885 55.071 76.7085 55.051 71.8985C55.021 67.0885 57.791 63.1685 61.211 63.1485C64.651 63.1285 67.451 67.0285 67.481 71.8285C67.511 76.6385 64.741 80.5485 61.301 80.5585V80.5685Z" fill="#2502FE"/>
<path d="M88.6612 37.2994C88.6412 33.0594 85.1812 29.6294 80.9312 29.6594C76.6912 29.6794 73.2612 33.1394 73.2912 37.3894C73.3112 40.5394 75.2112 43.2294 77.9312 44.3994L77.9912 55.6293L84.1612 55.5993L84.1012 44.3694C86.8012 43.1694 88.6812 40.4594 88.6612 37.3094V37.2994Z" fill="white"/>
</svg>
